<svg width="512" height="512" viewBox="0 0 512 512" fill="none" xmlns="http://www.w3.org/2000/svg">
    <rect width="512" height="512" rx="128" fill="url(#paint0_linear)"/>
    <path d="M160 120H352C369.673 120 384 134.327 384 152V392C384 409.673 369.673 424 352 424H160C142.327 424 128 409.673 128 392V152C128 134.327 142.327 120 160 120Z" fill="white" fill-opacity="0.1"/>
    <rect x="180" y="80" width="152" height="60" rx="30" fill="white"/>
    <path d="M128 152C128 134.327 142.327 120 160 120H352C369.673 120 384 134.327 384 152V360C384 377.673 369.673 392 352 392H160C142.327 392 128 377.673 128 360V152Z" fill="white"/>
    <rect x="176" y="192" width="160" height="12" rx="6" fill="#E2E8F0"/>
    <rect x="176" y="240" width="160" height="12" rx="6" fill="#E2E8F0"/>
    <rect x="176" y="288" width="120" height="12" rx="6" fill="#E2E8F0"/>
    <circle cx="256" cy="110" r="15" fill="#6366F1"/>
    <defs>
        <linearGradient id="paint0_linear" x1="0" y1="0" x2="512" y2="512" gradientUnits="userSpaceOnUse">
            <stop stop-color="#6366F1"/>
            <stop offset="1" stop-color="#4338CA"/>
        </linearGradient>
    </defs>
</svg>
